<svg viewBox="0 0 124 131" xmlns="http://www.w3.org/2000/svg"><title>Celebration glasses</title><g fill="none"><g id="Group"><path d="M31.447 17.86c-6.628 21.267-14.993 37.245-7.098 61.728-.859 19.258-7.05 38.309-11.14 38.369-5.428.079-11.82-1.455-11.548 1.1l-.128 1.96c2.641 2.098 6.672 4.072 14.599 6.835 9.143 1.859 12.267 1.601 16.287 1.658l.749-2.162c.994-2.869-2.407-3.317-9.666-6.806-4.67-2.245.952-24.404 8.87-39.989 17.33-15.998 18.009-40.141 22.171-56.176l-23.095-6.517z" stroke="#fff" stroke-width="2"/><path d="M48.114 23.742l-10.22 39.004s-.907 3.376-.225 3.578c.731.217 1.765-3.381 1.765-3.381l10.334-38.973-1.654-.228z" opacity=".863" fill="#fff"/></g><g><path d="M85.958 2.082l-25.593 6.477c5.399 23.904 6.231 43.722 27.238 62.711 9.789 18.819 14.385 40.372 10.521 42.675-5.128 3.056-12.063 5.107-10.396 7.392l.958 1.938c3.671.548 8.599.215 17.673-1.507 9.735-3.252 12.57-5.214 16.43-7.367l-.477-2.472c-.633-3.279-4.121-1.838-12.958-1.174-5.685.427-12.535-23.774-13.575-42.972 7.699-24.762-4.952-48.137-9.82-65.701z" stroke="#fff" stroke-width="2"/><path d="M79.483 5.007l11.747 42.775s.996 3.715 1.757 3.533c.815-.194-.181-4.19-.181-4.19l-11.621-42.809-1.702.691z" stroke="#979797" opacity=".815" fill="#fff"/></g></g></svg>